# xmcd
#
# Track frame offsets:
#   182
#   12425
#   27550
#   40577
#   53792
#   65377
#   75917
#   87595
#   99227
#   114742
#   129102
#   141542
#
# Disc length: 2064 seconds
#
# Revision: 3
# Processed by: cddbd v1.5.1PL0 Copyright (c) Steve Scherf et al.
# Submitted via: Media_Universe 3.0
#
DISCID=97080e0c
DTITLE=Merle Haggard - Merle Haggard Country Legend-Disc 1
DYEAR=1993
DGENRE=Country
TTITLE0=Okie from Muskogee
TTITLE1=I Threw Away the Rose
TTITLE2=The Fightin' Side of Me
TTITLE3=A Working man Can't get Nowhere Today
TTITLE4=Somebody Told My Story
TTITLE5=Today I Started Lovin' You Again
TTITLE6=Working Man Blues
TTITLE7=Carolyn
TTITLE8=Hungry Eyes
TTITLE9=Grandma Harp
TTITLE10=The Roots of my Raising
TTITLE11=I'm A Lonesome Fugitive
EXTD=
EXTT0=
EXTT1=
EXTT2=
EXTT3=
EXTT4=
EXTT5=
EXTT6=
EXTT7=
EXTT8=
EXTT9=
EXTT10=
EXTT11=
PLAYORDER=
